<svg width="991" height="179" viewBox="0 0 991 179" fill="none" xmlns="http://www.w3.org/2000/svg">
<g clip-path="url(#clip0_6_2)">
<path d="M511.435 0H990.065V179H511.435" fill="#55C500"/>
<path d="M710.543 41.4114C704.641 41.4114 699.857 46.1427 699.857 51.9787C699.857 57.8156 704.641 62.5469 710.543 62.5469C716.446 62.5469 721.229 57.8156 721.229 51.9787C721.229 46.1427 716.445 41.4114 710.543 41.4114ZM812.776 36.3916H795.219V59.0849H783.403V75.3505H795.219V108.109C795.219 114.512 796.041 119.751 797.687 123.832C799.332 127.91 801.562 131.123 804.383 133.473C807.202 135.824 810.515 137.436 814.329 138.312C818.139 139.192 820.737 139.631 825.07 139.631H838.266V124.141H826.87C824.94 124.141 823.124 123.896 821.429 123.405C819.743 122.921 818.199 122.044 816.925 120.849C815.621 119.638 814.588 117.985 813.831 115.892C813.076 113.803 812.696 111.157 812.696 107.955V75.3514H838.464V59.0867H812.775L812.776 36.3916ZM654.828 101.352C652.911 105.864 650.292 109.779 646.964 113.092C643.636 116.408 639.728 119.013 635.241 120.908C630.754 122.802 625.942 123.749 620.798 123.749C615.705 123.749 610.931 122.802 606.469 120.908C602.007 119.013 598.113 116.408 594.786 113.092C591.458 109.779 588.822 105.863 586.882 101.351C584.941 96.8401 583.972 91.9664 583.972 86.7331C583.972 81.4971 584.941 76.6123 586.882 72.0742C588.822 67.538 591.457 63.6119 594.785 60.2959C598.113 56.9827 602.006 54.3767 606.468 52.4825C610.931 50.5883 615.705 49.6417 620.797 49.6417C625.942 49.6417 630.753 50.5883 635.24 52.4825C639.727 54.3776 643.635 56.9818 646.963 60.2959C650.292 63.6119 652.911 67.5389 654.828 72.0733C656.743 76.6123 657.701 81.498 657.701 86.7331C657.701 91.9655 656.743 96.8392 654.828 101.352ZM676.531 86.6573C676.531 79.2285 675.068 72.2878 672.143 65.8296C669.219 59.3733 665.237 53.7527 660.196 48.9659C655.154 44.1801 649.242 40.4167 642.464 37.6748C635.681 34.9338 628.46 33.5629 620.797 33.5629C613.085 33.5629 605.849 34.9338 599.096 37.6748C592.339 40.4176 586.453 44.181 581.437 48.9669C576.421 53.7527 572.451 59.3742 569.529 65.8305C566.604 72.2878 565.141 79.2294 565.141 86.6583C565.141 94.0353 566.604 100.955 569.529 107.41C572.451 113.866 576.421 119.501 581.438 124.309C586.454 129.123 592.339 132.91 599.097 135.678C605.849 138.443 613.084 139.829 620.797 139.829C626.141 139.829 631.245 139.166 636.111 137.847C640.921 136.548 645.537 134.624 649.837 132.126L660.55 142.814C662.227 144.481 664.505 145.42 666.882 145.425C669.259 145.43 671.542 144.501 673.226 142.843C674.911 141.184 675.861 138.932 675.866 136.581C675.871 134.23 674.932 131.973 673.255 130.307L663.6 120.757C667.633 116.122 670.796 110.912 673.089 105.128C675.383 99.3472 676.531 93.1885 676.531 86.6573ZM917.632 110.407C916.372 113.35 914.668 115.886 912.515 118.015C910.36 120.145 907.831 121.796 904.929 122.968C902.025 124.141 898.927 124.727 895.637 124.727C892.298 124.727 889.177 124.141 886.273 122.968C883.369 121.797 880.829 120.145 878.653 118.015C876.475 115.886 874.756 113.339 873.499 110.37C872.239 107.405 871.611 104.151 871.611 100.609C871.611 97.0675 872.228 93.8375 873.461 90.9153C874.697 87.9987 876.388 85.474 878.543 83.3441C880.695 81.2151 883.224 79.5632 886.127 78.391C889.032 77.2188 892.154 76.6317 895.492 76.6317C898.832 76.6317 901.953 77.2308 904.855 78.4279C907.76 79.6232 910.3 81.2743 912.477 83.3811C914.657 85.4861 916.373 88.0098 917.633 90.9541C918.891 93.8976 919.519 97.1146 919.519 100.609C919.519 104.196 918.891 107.464 917.633 110.407M921.262 63.7126L920.244 71.8246C918.792 70.4352 917.135 69.1077 915.274 67.8403C913.411 66.572 911.364 65.4709 909.137 64.5382C906.841 63.5825 904.461 62.8373 902.026 62.3121C899.508 61.7621 896.824 61.4866 893.968 61.4866C887.966 61.4866 882.51 62.5173 877.599 64.5733C872.687 66.6311 868.477 69.4313 864.97 72.9709C861.46 76.5134 858.749 80.6651 856.84 85.426C854.927 90.1869 853.973 95.2722 853.973 100.679C853.973 106.087 854.938 111.173 856.874 115.934C858.809 120.695 861.52 124.848 865.004 128.388C868.491 131.93 872.686 134.716 877.599 136.751C882.51 138.785 887.944 139.802 893.896 139.802C896.702 139.802 899.377 139.527 901.917 138.976C904.457 138.426 906.828 137.684 909.029 136.751C911.171 135.85 913.225 134.757 915.164 133.484C916.977 132.299 918.677 130.954 920.244 129.465L921.262 137.576H936.36V63.7099L921.262 63.7126ZM701.933 137.659H719.149V74.3715H701.933V137.659ZM744.795 137.659H762.012V74.3715H744.795V137.659ZM753.399 41.4151C747.498 41.4151 742.713 46.1464 742.713 51.9815C742.713 57.8184 747.498 62.5506 753.398 62.5506C759.299 62.5506 764.086 57.8184 764.086 51.9824C764.086 46.1464 759.302 41.4151 753.399 41.4151Z" fill="white"/>
</g>
<path d="M86.9387 75.0879C85.7075 72.0326 84.0659 69.3193 82.0138 66.9481C79.9617 64.5312 77.6133 62.502 74.9684 60.8603C72.3691 59.1731 69.5419 57.8962 66.4866 57.0298C63.4313 56.1634 60.3076 55.7302 57.1155 55.7302C52.5098 55.7302 48.1777 56.5966 44.1192 58.3294C40.1063 60.0623 36.595 62.4564 33.5853 65.5116C30.5756 68.5213 28.1816 72.101 26.4031 76.2507C24.6703 80.4004 23.8038 84.8694 23.8038 89.6575C23.8038 94.4456 24.6703 98.9145 26.4031 103.064C28.1816 107.168 30.5756 110.748 33.5853 113.803C36.595 116.813 40.1063 119.184 44.1192 120.917C48.1777 122.65 52.5098 123.516 57.1155 123.516C60.3076 123.516 63.4085 123.106 66.4182 122.285C69.4735 121.419 72.3007 120.165 74.9 118.523C77.5449 116.881 79.8933 114.875 81.9454 112.504C83.9975 110.087 85.6391 107.351 86.8703 104.295H104.381C102.876 109.768 100.482 114.624 97.199 118.865C93.9613 123.06 90.1764 126.594 85.8443 129.467C81.5578 132.34 76.9293 134.529 71.9587 136.034C66.9882 137.493 62.0405 138.223 57.1155 138.223C52.4642 138.223 47.9953 137.653 43.7088 136.513C39.4223 135.373 35.4094 133.754 31.6701 131.656C27.9764 129.513 24.5791 126.982 21.4782 124.064C18.4229 121.1 15.8008 117.816 13.612 114.214C11.4687 110.611 9.78146 106.735 8.55023 102.585C7.3646 98.4357 6.77178 94.1036 6.77178 89.5891C6.77178 85.0746 7.3646 80.7424 8.55023 76.5927C9.78146 72.443 11.4687 68.5669 13.612 64.9644C15.8008 61.3619 18.4229 58.1014 21.4782 55.183C24.5791 52.2189 27.9764 49.688 31.6701 47.5904C35.4094 45.4927 39.4223 43.8739 43.7088 42.7338C47.9953 41.5938 52.4642 41.0238 57.1155 41.0238C62.0405 41.0238 66.9882 41.7534 71.9587 43.2126C76.9293 44.6263 81.5578 46.7695 85.8443 49.6424C90.1764 52.4697 93.9613 56.0266 97.199 60.3131C100.482 64.554 102.876 69.5017 104.381 75.1563L86.9387 75.0879ZM122.986 43.2126H140.019V121.533H182.017V136.239H122.986V43.2126ZM196.997 43.2126H214.029V136.239H196.997V43.2126ZM273.676 80.218H260.064V65.8536H273.676V62.844C273.676 59.6519 274.063 56.4598 274.839 53.2677C275.614 50.0756 276.936 47.2255 278.806 44.7175C280.676 42.2094 283.184 40.1802 286.33 38.6297C289.477 37.0337 293.444 36.2357 298.232 36.2357H310.476V49.916L302.131 49.8476C299.942 49.8476 298.095 50.1896 296.59 50.8736C295.086 51.5577 293.854 52.5153 292.897 53.7465C291.985 54.9322 291.323 56.3458 290.913 57.9874C290.548 59.5835 290.366 61.3163 290.366 63.186V65.8536H310.202V80.218H290.366V136.239H273.676V80.218ZM320.736 101.081C320.736 95.9277 321.694 91.0939 323.609 86.5794C325.524 82.0193 328.192 78.052 331.612 74.6775C335.078 71.303 339.182 68.6353 343.924 66.6745C348.667 64.7136 353.843 63.7332 359.452 63.7332C365.106 63.7332 370.305 64.7136 375.047 66.6745C379.835 68.6353 383.94 71.303 387.36 74.6775C390.825 78.052 393.516 82.0193 395.431 86.5794C397.392 91.0939 398.372 95.9277 398.372 101.081C398.372 106.279 397.415 111.136 395.499 115.65C393.584 120.165 390.894 124.109 387.428 127.484C383.962 130.858 379.835 133.526 375.047 135.487C370.305 137.402 365.083 138.36 359.383 138.36C353.774 138.36 348.599 137.402 343.856 135.487C339.159 133.526 335.101 130.858 331.681 127.484C328.26 124.109 325.57 120.165 323.609 115.65C321.694 111.09 320.736 106.234 320.736 101.081ZM337.358 101.012C337.358 104.387 337.928 107.488 339.068 110.315C340.254 113.097 341.85 115.513 343.856 117.565C345.862 119.572 348.211 121.145 350.901 122.285C353.592 123.425 356.488 123.995 359.588 123.995C362.689 123.995 365.585 123.448 368.275 122.354C370.966 121.214 373.314 119.64 375.321 117.634C377.327 115.582 378.901 113.142 380.041 110.315C381.226 107.488 381.819 104.387 381.819 101.012C381.819 97.6833 381.226 94.628 380.041 91.8463C378.901 89.0191 377.327 86.6022 375.321 84.5957C373.314 82.5893 370.943 81.0161 368.207 79.876C365.517 78.736 362.644 78.166 359.588 78.166C356.488 78.166 353.592 78.736 350.901 79.876C348.211 80.9705 345.862 82.5437 343.856 84.5957C341.85 86.6022 340.254 89.0191 339.068 91.8463C337.928 94.628 337.358 97.6833 337.358 101.012ZM462.054 80.4232L453.778 80.4916C450.54 80.4916 447.622 80.9705 445.022 81.9281C442.423 82.8401 440.189 84.2309 438.319 86.1006C436.495 87.9246 435.081 90.2275 434.078 93.0092C433.12 95.7452 432.642 98.9145 432.642 102.517V136.239H416.02V65.8536H429.495L431 74.2671C433.371 71.8502 436.358 69.8438 439.961 68.2477C443.609 66.6517 447.918 65.8536 452.889 65.8536H462.054V80.4232Z" fill="#55C500"/>
<defs>
<clipPath id="clip0_6_2">
<rect width="478.63" height="179" fill="white" transform="translate(511.435)"/>
</clipPath>
</defs>
</svg>
